<?xml version="1.0" encoding="UTF-8" standalone="no"?>
<svg
   height="64"
   viewBox="0 0 64 64"
   width="64"
   version="1.1"
   id="svg2"
   sodipodi:docname="Checkerboard.svg"
   inkscape:export-filename="CheckerboardDark.svg"
   inkscape:export-xdpi="96"
   inkscape:export-ydpi="96"
   xmlns:inkscape="http://www.inkscape.org/namespaces/inkscape"
   xmlns:sodipodi="http://sodipodi.sourceforge.net/DTD/sodipodi-0.dtd"
   xmlns="http://www.w3.org/2000/svg"
   xmlns:svg="http://www.w3.org/2000/svg">
  <defs
     id="defs2" />
  <sodipodi:namedview
     id="namedview2"
     pagecolor="#ffffff"
     bordercolor="#000000"
     borderopacity="0.25"
     inkscape:showpageshadow="2"
     inkscape:pageopacity="0.0"
     inkscape:pagecheckerboard="0"
     inkscape:deskcolor="#d1d1d1"
     showgrid="false" />
  <g
     inkscape:groupmode="layer"
     id="layer1"
     inkscape:label="Layer 1"
     style="display:none">
    <rect
       style="fill:#00ff00"
       id="rect2"
       width="76.385338"
       height="63.345268"
       x="-2.5643649"
       y="-0.60017049" />
    <rect
       style="fill:#00ff00"
       id="rect3"
       width="76.112534"
       height="9.3844843"
       x="-4.3103156"
       y="57.452686" />
  </g>
  <g
     inkscape:groupmode="layer"
     id="layer2"
     inkscape:label="AllFill"
     style="display:inline">
    <rect
       style="display:inline;fill:#f9f9f9;stroke-width:1.03549"
       id="rect4"
       width="67.328217"
       height="66.291565"
       x="-0.60017049"
       y="-0.76385337" />
  </g>
  <g
     fill="#ffffff"
     id="g2"
     style="display:none">
    <path
       d="M 0,0 H 64 V 64 H 0 Z"
       fill-opacity="0.2"
       id="path1"
       style="display:inline" />
    <path
       d="M 0,0 V 16 H 16 V 0 Z M 16,16 V 32 H 32 V 16 Z m 16,0 H 48 V 0 H 32 Z m 16,0 V 32 H 64 V 16 Z m 0,16 H 32 v 16 h 16 z m 0,16 V 64 H 64 V 48 Z M 32,48 H 16 V 64 H 32 Z M 16,48 V 32 H 0 v 16 z"
       fill-opacity="0.4"
       id="path2"
       style="display:inline;fill:#f9f9f9" />
  </g>
  <path
     style="display:none;fill:#f9f9f9;stroke-width:0.054561"
     d="M 0,7.9931799 V 0 H 7.9931799 15.98636 V 7.9931799 15.98636 H 7.9931799 0 Z"
     id="path4" />
  <path
     style="display:none;fill:#f9f9f9;stroke-width:0.054561"
     d="m 16.040921,24.00682 v -7.965899 h 7.965899 7.9659 v 7.965899 7.9659 h -7.9659 -7.965899 z"
     id="path5" />
  <path
     style="display:none;fill:#f9f9f9;stroke-width:0.054561"
     d="M 32.02728,7.9931799 V 0 h 7.9659 7.965899 V 7.9931799 15.98636 h -7.965899 -7.9659 z"
     id="path6" />
  <path
     style="display:none;fill:#f9f9f9;stroke-width:0.054561"
     d="M 48.01364,24.00682 V 16.040921 H 56.00682 64 v 7.965899 7.9659 h -7.99318 -7.99318 z"
     id="path7" />
  <path
     style="display:none;fill:#f9f9f9;stroke-width:0.054561"
     d="m 32.02728,39.99318 v -7.9659 h 7.9659 7.965899 v 7.9659 7.965899 h -7.965899 -7.9659 z"
     id="path8" />
  <path
     style="display:none;fill:#f9f9f9;stroke-width:0.054561"
     d="M 48.01364,56.00682 V 48.01364 H 56.00682 64 V 56.00682 64 h -7.99318 -7.99318 z"
     id="path9" />
  <path
     style="display:none;fill:#f9f9f9;stroke-width:0.054561"
     d="m 16.040921,56.00682 v -7.99318 h 7.965899 7.9659 V 56.00682 64 h -7.9659 -7.965899 z"
     id="path10" />
  <path
     style="display:none;opacity:1;fill:#f9f9f9;stroke-width:0.054561"
     d="m 0,39.99318 v -7.9659 H 7.9931799 15.98636 v 7.9659 7.965899 H 7.9931799 0 Z"
     id="path11" />
  <path
     style="display:none;opacity:0.5;fill:#4d4d4d;stroke-width:0.054561"
     d="M 16.040921,7.9931799 V 0 h 7.965899 7.9659 V 7.9931799 15.98636 h -7.9659 -7.965899 z"
     id="path19" />
  <path
     style="display:none;opacity:0.5;fill:#4d4d4d;stroke-width:0.054561"
     d="M 0,24.00682 V 16.040921 H 7.9931799 15.98636 v 7.965899 7.9659 H 7.9931799 0 Z"
     id="path20" />
  <path
     style="display:none;opacity:0.5;fill:#4d4d4d;stroke-width:0.054561"
     d="m 16.040921,39.99318 v -7.9659 h 7.965899 7.9659 v 7.9659 7.965899 h -7.9659 -7.965899 z"
     id="path21" />
  <path
     style="display:none;opacity:0.5;fill:#4d4d4d;stroke-width:0.054561"
     d="m 32.02728,24.00682 v -7.965899 h 7.9659 7.965899 v 7.965899 7.9659 h -7.965899 -7.9659 z"
     id="path22" />
  <path
     style="display:none;opacity:0.5;fill:#4d4d4d;stroke-width:0.054561"
     d="M 48.01364,7.9931799 V 0 H 56.00682 64 V 7.9931799 15.98636 h -7.99318 -7.99318 z"
     id="path23" />
  <path
     style="display:none;opacity:0.5;fill:#4d4d4d;stroke-width:0.054561"
     d="m 48.01364,39.99318 v -7.9659 H 56.00682 64 v 7.9659 7.965899 h -7.99318 -7.99318 z"
     id="path24" />
  <path
     style="display:none;opacity:0.5;fill:#4d4d4d;stroke-width:0.054561"
     d="m 32.02728,56.00682 v -7.99318 h 7.9659 7.965899 V 56.00682 64 h -7.965899 -7.9659 z"
     id="path25" />
  <path
     style="display:none;opacity:0.5;fill:#4d4d4d;stroke-width:0.054561"
     d="M 0,56.00682 V 48.01364 H 7.9931799 15.98636 V 56.00682 64 H 7.9931799 0 Z"
     id="path26" />
</svg>
